<?xml version="1.0" encoding="UTF-8" standalone="no"?>
<!-- Created with Inkscape (http://www.inkscape.org/) -->

<svg
   width="60.735806mm"
   height="60.543003mm"
   viewBox="0 0 60.735806 60.543003"
   version="1.1"
   id="svg1"
   xml:space="preserve"
   sodipodi:docname="compiled-icon.svg"
   inkscape:version="1.4.2 (f4327f4, 2025-05-13)"
   inkscape:export-filename="compiled-icon.svg"
   inkscape:export-xdpi="107.26"
   inkscape:export-ydpi="107.26"
   xmlns:inkscape="http://www.inkscape.org/namespaces/inkscape"
   xmlns:sodipodi="http://sodipodi.sourceforge.net/DTD/sodipodi-0.dtd"
   xmlns="http://www.w3.org/2000/svg"
   xmlns:svg="http://www.w3.org/2000/svg"><sodipodi:namedview
     id="namedview1"
     pagecolor="#ffffff"
     bordercolor="#000000"
     borderopacity="0.25"
     inkscape:showpageshadow="2"
     inkscape:pageopacity="0.0"
     inkscape:pagecheckerboard="0"
     inkscape:deskcolor="#d1d1d1"
     inkscape:document-units="mm"
     inkscape:zoom="1.8595082"
     inkscape:cx="51.088777"
     inkscape:cy="104.59755"
     inkscape:window-width="1920"
     inkscape:window-height="1111"
     inkscape:window-x="1911"
     inkscape:window-y="99"
     inkscape:window-maximized="1"
     inkscape:current-layer="svg1"><inkscape:page
       x="0"
       y="0"
       width="60.735806"
       height="60.543003"
       id="page2"
       margin="0"
       bleed="0" /></sodipodi:namedview><defs
     id="defs1" /><g
     id="g12"
     transform="matrix(1.1225483,0,0,1.1225483,15.736143,19.806589)"><path
       style="fill:#333333;fill-opacity:1;stroke-width:0.0475332"
       d="m 160.6082,29.397122 c -1.36082,-0.06409 -2.52207,-0.238632 -2.73091,-0.486827 -0.21588,-0.256558 -0.43791,-2.863384 0.63919,-4.810728 1.99607,-3.608799 5.64826,-6.384492 9.65593,-7.219837 3.10696,-0.647603 10.32167,-0.505723 13.21418,0.88135 1.25472,0.601685 3.0561,1.951158 4.39924,3.293958 1.65436,1.653946 1.32287,4.291134 2.12643,6.187385 0.2853,0.673257 -0.8281,2.321662 -0.95411,2.389097 -0.17952,0.09608 -3.21587,0.436258 -5.09329,0.481145 -2.17151,0.05192 -18.81517,-0.235439 -19.92573,-0.287699 z"
       id="path13"
       sodipodi:nodetypes="csssssssscc"
       transform="matrix(0.26458333,0,0,0.26458333,-14.351134,-17.934221)" /><path
       style="fill:#333333;fill-opacity:1;stroke-width:0.190133"
       d="m 114.77633,184.14055 c 0,0 -5.81074,-9.21572 -6.59973,-18.01327 -0.19751,-2.20217 0.26608,-8.21877 0.72425,-9.92696 0.43326,-1.61526 4.81241,-4.13911 5.87548,-5.63423 1.33513,-1.87776 2.97487,-3.24448 4.98971,-4.57004 2.84413,-1.87115 5.64045,-2.70954 9.6356,-3.10326 2.41876,-0.23836 1.5695,-0.35004 2.31541,-1.23457 1.0597,-1.25665 -4.88316,-0.2558 -5.53018,-1.6533 -0.5035,-1.0875 -5.88475,0.44982 -6.97642,0.19643 -0.6863,-0.15931 1.29952,0.5539 -26.009407,-0.50098 L 54.023211,138.18703 53.547879,83.213161 c -0.25665,-29.682476 0.484176,-51.320979 0.591192,-52.972835 0.193705,-2.98995 2.581984,-4.23855 3.65132,-6.359465 2.532716,-5.023374 8.287509,-7.487657 13.216423,-8.172114 1.135189,-0.157639 13.338547,0.857578 43.769516,0.799467 23.24135,-0.04438 42.92228,0.328374 42.92228,0.387174 0,0.0588 0.0226,3.599674 -0.45949,4.253549 -1.17994,1.600445 -0.65083,5.9619 -3.33962,6.571372 l 0.40343,3.50002 -0.19783,67.653869 -0.26505,70.813312 -1.94045,5.59337 c -1.38311,3.98683 -4.60905,6.22103 -7.30827,8.7065 -2.36742,2.17996 -7.62837,2.86249 -10.88695,3.72188 -2.00361,0.52842 -10.48156,-0.47649 -10.48156,-0.47649 z"
       id="path15"
       transform="matrix(0.26458333,0,0,0.26458333,-14.351134,-17.934221)"
       sodipodi:nodetypes="sssssssssscsssssssscccsssss" /><path
       style="fill:#333333;fill-opacity:1;stroke-width:0.380265"
       d="m 27.949513,185.2739 c 0,0 -8.9031,-4.91357 -10.246664,-14.13175 -0.373486,-2.56249 -1.488544,-7.73833 -0.981982,-10.30957 1.496086,-7.59393 7.064764,-20.06843 14.434654,-17.3019 l 11.624346,-0.62988 34.128826,-0.008 c 20.444023,-0.004 37.867637,1.03436 37.867637,1.14656 0,0.11215 -1.56019,7.31972 -2.61558,8.69669 -2.34132,3.05472 -5.61798,4.85999 -6.78364,8.605 -1.14217,3.66958 1.31328,10.21582 2.34101,14.05642 0.90393,3.37795 1.6945,4.70551 3.77734,7.22235 0.95072,1.14882 0.11246,5.45058 0.11246,5.60892 0,0.3689 -74.532035,1.13303 -74.532035,1.13303 z"
       id="path14"
       transform="matrix(0.26458333,0,0,0.26458333,-14.351134,-17.934221)"
       sodipodi:nodetypes="ssssccssssssss" /><path
       style="display:inline;fill:#999999;stroke-width:0.229842"
       d="M 9.4022513,51.249926 C 6.306495,50.774791 3.8643033,48.44035 3.1911967,45.312895 3.0396409,44.608727 3.0409308,43.117158 3.1935449,42.406314 3.7798894,39.678222 5.7077032,37.548324 8.3376181,36.723022 9.1557337,36.46628 9.8635865,36.386671 11.331726,36.386274 l 1.321524,-4.6e-4 0.01843,-13.941193 C 12.68913,9.2467211 12.69597,8.4791117 12.799965,8.0473371 c 0.450388,-1.869966 1.446575,-3.3119915 2.97017,-4.299454 0.757563,-0.4909879 1.59321,-0.8041106 2.567844,-0.96219 0.833497,-0.1351878 27.673296,-0.1347259 28.448678,4.741e-4 1.777576,0.3099836 3.252226,1.3502047 4.15531,2.9311633 0.577005,1.0101225 0.916619,2.6605454 0.668754,3.2499508 -0.103656,0.2464876 -0.367431,0.5079044 -0.601857,0.596477 -0.115168,0.043515 -1.602476,0.064681 -4.544699,0.064681 h -4.373506 l -0.01789,17.5899217 -0.01789,17.589918 -0.131763,0.547314 c -0.17054,0.708383 -0.37631,1.300881 -0.623032,1.79396 -1.102405,2.203185 -3.21336,3.745011 -5.615792,4.101738 -0.558903,0.08299 -2.14032,0.09359 -13.184983,0.08841 -10.349184,-0.0048 -12.6458821,-0.02063 -13.0972216,-0.08989 z M 29.318239,49.187519 c 0,-0.01636 -0.131283,-0.174729 -0.291738,-0.351908 -2.345415,-2.589889 -2.536328,-6.574164 -0.449848,-9.388199 0.201275,-0.271456 0.394466,-0.511182 0.429314,-0.53272 0.03485,-0.02153 0.121628,-0.120987 0.192844,-0.220999 l 0.129483,-0.181845 -9.871802,0.01702 -9.8718026,0.01702 -0.4455358,0.13774 c -2.0583007,0.636352 -3.4850523,2.186233 -3.8669624,4.20067 -0.4747115,2.503969 0.9452706,5.046074 3.3375456,5.974993 0.9243398,0.358926 0.5365183,0.346557 11.0545682,0.352502 5.309665,0.0029 9.653934,-0.0079 9.653934,-0.02432 z m 6.081216,-0.03352 c 0.568487,-0.08969 1.112137,-0.276543 1.696046,-0.58293 1.342604,-0.704487 2.237644,-1.834305 2.693169,-3.399614 l 0.141048,-0.484677 0.03053,-18.578119 0.03053,-18.5781198 0.171231,-0.5473103 c 0.20612,-0.658823 0.570365,-1.4041299 0.898866,-1.839225 l 0.241303,-0.319609 H 30.1082 c -12.214625,0 -11.61419,-0.016366 -12.492433,0.3404953 -1.09877,0.446471 -2.099802,1.4825049 -2.52423,2.612492 -0.320622,0.8536143 -0.307413,0.2120306 -0.307413,14.9311398 v 13.677392 h 10.005557 c 10.889513,0 10.220075,-0.02172 10.560292,0.34218 0.426494,0.456146 0.38784,1.104269 -0.09092,1.524631 -0.228199,0.200363 -0.326016,0.224423 -1.174401,0.288904 -0.533406,0.04053 -1.363019,0.275647 -1.865463,0.528658 -1.339442,0.674496 -2.369099,1.912567 -2.783506,3.346916 -0.18446,0.638452 -0.227201,1.806784 -0.09098,2.486874 0.194919,0.973123 0.660575,1.867776 1.362892,2.618476 1.196664,1.279112 2.98459,1.900804 4.691863,1.631443 z M 24.210016,28.400114 c 0,-0.03639 4.260527,-12.166979 4.28023,-12.186683 0.01081,-0.01079 0.595823,-0.01224 1.300057,-0.0031 l 1.280423,0.01644 -2.137145,6.09642 -2.137143,6.096421 h -1.293211 c -0.711268,0 -1.293211,-0.0088 -1.293211,-0.0194 z m -3.511203,-3.438144 -3.298358,-1.194583 -7.11e-4,-1.164686 -7.1e-4,-1.164685 0.167234,-0.06043 c 0.09197,-0.03324 1.569885,-0.569539 3.284234,-1.191787 1.714352,-0.622247 3.131132,-1.131358 3.148403,-1.131358 0.01726,0 0.02394,0.495701 0.01482,1.101561 l -0.01657,1.101561 -1.90761,0.659085 c -1.049185,0.362498 -1.918393,0.669868 -1.931569,0.683044 -0.01316,0.01317 0.841107,0.320303 1.898406,0.682502 1.057303,0.362198 1.934021,0.688913 1.948264,0.726033 0.01424,0.03713 0.01838,0.535678 0.0092,1.107907 l -0.01669,1.040418 z m 10.443792,0.08984 V 23.941516 L 33.093061,23.27148 35.043519,22.601443 33.108264,21.933685 31.17301,21.26593 31.15642,20.15314 c -0.01314,-0.881111 -4.59e-4,-1.106661 0.06081,-1.083348 0.04258,0.01619 1.535194,0.559319 3.316925,1.206946 l 3.239513,1.177503 -0.01646,1.152159 -0.01647,1.152161 -2.888578,1.050596 c -1.58872,0.577827 -3.073298,1.118624 -3.299064,1.201771 l -0.410479,0.151175 z M 49.386256,7.4170818 c 0,-0.045678 -0.100327,-0.2851252 -0.222952,-0.5321072 C 48.881974,6.3183321 48.134203,5.551146 47.580983,5.2615674 45.705528,4.279877 43.421645,5.0216477 42.455919,6.9261118 c -0.322211,0.6354143 -0.682969,0.574018 3.372826,0.574018 2.966135,0 3.557511,-0.013801 3.557511,-0.083055 z"
       id="path1"
       transform="translate(-14.351134,-17.934221)" /></g></svg>
