<?xml version="1.0" encoding="UTF-8" standalone="no"?>
<!-- Created with Inkscape (http://www.inkscape.org/) -->

<svg
   width="60.735806mm"
   height="60.543003mm"
   viewBox="0 0 60.735806 60.543003"
   version="1.1"
   id="svg1"
   xml:space="preserve"
   sodipodi:docname="source-icon.svg"
   inkscape:version="1.4.2 (f4327f4, 2025-05-13)"
   inkscape:export-filename="source-icon.svg"
   inkscape:export-xdpi="107.26"
   inkscape:export-ydpi="107.26"
   xmlns:inkscape="http://www.inkscape.org/namespaces/inkscape"
   xmlns:sodipodi="http://sodipodi.sourceforge.net/DTD/sodipodi-0.dtd"
   xmlns="http://www.w3.org/2000/svg"
   xmlns:svg="http://www.w3.org/2000/svg"><sodipodi:namedview
     id="namedview1"
     pagecolor="#ffffff"
     bordercolor="#000000"
     borderopacity="0.25"
     inkscape:showpageshadow="2"
     inkscape:pageopacity="0.0"
     inkscape:pagecheckerboard="0"
     inkscape:deskcolor="#d1d1d1"
     inkscape:document-units="mm"
     inkscape:zoom="1.8595082"
     inkscape:cx="51.088777"
     inkscape:cy="104.59755"
     inkscape:window-width="1920"
     inkscape:window-height="1111"
     inkscape:window-x="1911"
     inkscape:window-y="99"
     inkscape:window-maximized="1"
     inkscape:current-layer="svg1"><inkscape:page
       x="0"
       y="0"
       width="60.735806"
       height="60.543003"
       id="page2"
       margin="0"
       bleed="0" /></sodipodi:namedview><defs
     id="defs1" /><g
     id="g8"
     inkscape:export-filename="file-icon.svg"
     inkscape:export-xdpi="118.47"
     inkscape:export-ydpi="118.47"
     transform="matrix(1.1458712,0,0,1.1458712,-95.816079,-139.00698)"><ellipse
       style="fill:#333333;fill-opacity:1;stroke-width:0.97068;stroke-dasharray:none"
       id="path2"
       cx="30.367903"
       cy="30.271502"
       rx="23.525541"
       ry="23.450861"
       transform="translate(79.752662,117.45757)" /><path
       style="display:inline;fill:#cc0000;fill-opacity:1;stroke-width:0.0941822"
       d="m 95.2786,147.72726 v -14.78659 h 14.83369 14.83368 v 2.77837 2.77837 h -1.69527 -1.69528 v -1.13019 -1.13018 H 110.11229 98.669156 v 11.49022 11.49022 h 11.443134 11.44313 v -5.74511 -5.74511 h -3.43766 -3.43764 v -1.69528 -1.69528 h 5.13293 5.13292 v 9.08858 9.08857 H 110.11229 95.2786 Z"
       id="path7" /><path
       style="fill:#999999;fill-opacity:1;stroke-width:0.0332984"
       d="m 100.43073,156.30341 v -1.69822 h 7.99161 7.99162 v -1.16544 -1.16545 h -7.99162 -7.99161 v -7.40889 -7.4089 h 9.68983 9.68984 v 1.69822 1.69821 h -8.00827 -8.00827 v 4.01247 4.01245 h 8.00827 8.00827 v 4.56189 4.56188 h -9.68984 -9.68983 z"
       id="path8" /></g></svg>
